<svg width="28" height="28" viewBox="0 0 28 28" fill="none" xmlns="http://www.w3.org/2000/svg">
  <path d="M10.5 4.667L8.633 6.708H5.833C4.733 6.708 3.833 7.608 3.833 8.708V21.292C3.833 22.392 4.733 23.292 5.833 23.292H22.167C23.267 23.292 24.167 22.392 24.167 21.292V8.708C24.167 7.608 23.267 6.708 22.167 6.708H19.367L17.5 4.667H10.5ZM14 20.125C11.333 20.125 9.167 17.958 9.167 15.292C9.167 12.625 11.333 10.458 14 10.458C16.667 10.458 18.833 12.625 18.833 15.292C18.833 17.958 16.667 20.125 14 20.125ZM14 12.125C12.25 12.125 10.833 13.542 10.833 15.292C10.833 17.042 12.25 18.458 14 18.458C15.75 18.458 17.167 17.042 17.167 15.292C17.167 13.542 15.75 12.125 14 12.125Z" fill="#344EAD"/>
  <path d="M19.5 5.833L21.167 4.167L22.333 5.333L20.667 7L22.333 8.667L21.167 9.833L19.5 8.167L17.833 9.833L16.667 8.667L18.333 7L16.667 5.333L17.833 4.167L19.5 5.833Z" fill="#344EAD"/>
</svg>
